<?xml version="1.0" standalone="no"?>
<!DOCTYPE svg PUBLIC "-//W3C//DTD SVG 20010904//EN"
 "http://www.w3.org/TR/2001/REC-SVG-20010904/DTD/svg10.dtd">
<svg version="1.0" xmlns="http://www.w3.org/2000/svg"
 width="173.612762pt" height="162.639297pt" viewBox="0 0 173.612762 162.639297"
 preserveAspectRatio="xMidYMid meet">
<metadata>
Created by potrace 1.12, written by Peter Selinger 2001-2015
</metadata>
<g transform="translate(-16.962454,168.677507) scale(0.100000,-0.100000)"
fill="#000000" stroke="none">
<path d="M1533 1574 l-123 -116 0 -91 -1 -92 -97 -87 c-53 -48 -162 -151 -242
-228 -140 -134 -144 -140 -125 -155 11 -9 28 -14 37 -13 9 2 106 84 215 183
280 256 244 233 347 223 48 -5 93 -5 100 -1 8 5 71 63 140 130 103 99 126 126
121 143 -6 18 -15 20 -105 20 l-99 0 -3 98 c-4 134 -10 134 -165 -14z m23
-172 l-66 -67 0 40 c0 35 7 46 63 103 l62 63 3 -36 c3 -33 -3 -43 -62 -103z
m124 -57 c-53 -52 -71 -64 -97 -65 -18 0 -33 3 -33 7 0 4 26 33 57 65 51 52
62 58 98 58 l40 0 -65 -65z"/>
<path d="M763 1520 c-69 -14 -181 -57 -241 -92 -73 -42 -207 -177 -251 -251
-18 -31 -47 -96 -64 -144 -39 -113 -49 -279 -23 -396 55 -248 247 -457 499
-544 106 -37 281 -43 397 -14 221 54 403 200 500 398 89 183 92 414 7 582 -32
63 -35 66 -73 69 -30 2 -45 -2 -58 -16 -24 -27 -22 -47 10 -122 23 -53 29 -84
32 -169 5 -119 -7 -187 -48 -276 -119 -256 -411 -395 -684 -325 -111 28 -189
73 -276 160 -82 82 -128 161 -155 265 -19 77 -19 234 0 310 35 134 141 275
263 349 95 57 189 81 317 80 124 -1 196 -20 299 -80 l59 -35 33 32 c19 18 34
43 34 55 0 46 -124 119 -263 155 -76 20 -235 24 -314 9z"/>
<path d="M793 1256 c-182 -44 -316 -193 -346 -385 -59 -381 329 -663 680 -493
107 51 198 157 233 269 35 112 23 266 -25 340 l-17 25 -52 -51 -53 -52 15 -56
c24 -97 -6 -208 -78 -282 -79 -82 -215 -118 -322 -87 -150 43 -241 164 -240
318 0 84 28 152 89 219 86 92 194 125 311 95 34 -8 74 -23 88 -33 26 -17 27
-16 46 8 10 13 30 37 44 53 23 27 23 29 7 42 -91 72 -250 101 -380 70z"/>
<path d="M825 984 c-43 -22 -65 -44 -85 -84 -38 -76 -34 -152 13 -221 66 -98
203 -116 293 -37 42 37 59 69 68 123 11 68 -1 71 -91 20 -45 -25 -87 -45 -95
-45 -29 0 -58 31 -58 62 0 24 14 44 71 101 71 70 71 70 48 83 -33 18 -128 17
-164 -2z"/>
</g>
</svg>
