<?xml version="1.0" standalone="no"?>
<!DOCTYPE svg PUBLIC "-//W3C//DTD SVG 20010904//EN"
 "http://www.w3.org/TR/2001/REC-SVG-20010904/DTD/svg10.dtd">
<svg version="1.0" xmlns="http://www.w3.org/2000/svg"
 width="259.979575pt" height="347.745572pt" viewBox="0 0 259.979575 347.745572"
 preserveAspectRatio="xMidYMid meet">
<metadata>
Created by potrace 1.12, written by Peter Selinger 2001-2015
</metadata>
<g transform="translate(-19.000000,353.781921) scale(0.100000,-0.100000)"
fill="#000000" stroke="none">
<path d="M248 3524 c-44 -24 -58 -62 -58 -163 0 -85 2 -93 28 -122 15 -17 42
-34 62 -38 l35 -7 5 -264 c5 -282 6 -287 59 -343 55 -60 64 -62 320 -59 129 2
252 0 273 -3 34 -6 42 -14 83 -81 25 -41 45 -78 45 -82 0 -4 -16 -20 -35 -35
-54 -43 -65 -81 -65 -227 l0 -128 -69 -46 c-306 -204 -478 -546 -456 -907 8
-144 36 -253 95 -378 142 -295 400 -500 714 -565 98 -20 298 -21 398 -2 339
66 641 320 758 638 138 377 50 798 -225 1073 -72 73 -165 146 -210 167 -25 11
-25 12 -25 142 0 148 -14 197 -69 237 -17 12 -31 26 -31 30 0 9 76 140 90 153
6 6 41 11 78 11 414 1 478 4 512 28 18 12 47 39 64 60 l31 39 5 271 5 271 35
7 c20 4 47 21 63 39 28 32 29 34 25 136 -3 98 -5 105 -31 131 l-27 28 -1228 2
c-1072 2 -1230 0 -1254 -13z m1287 -388 c20 -9 41 -28 51 -47 15 -29 15 -41 4
-103 -7 -39 -21 -93 -31 -119 -11 -26 -19 -57 -19 -69 0 -26 126 -278 201
-403 42 -70 62 -94 91 -107 60 -29 68 -48 68 -170 0 -60 -2 -108 -4 -108 -3 0
-16 4 -30 10 -25 9 -26 13 -26 85 0 92 -9 111 -58 125 -36 9 -44 20 -114 137
-163 276 -263 510 -275 643 -5 57 -3 68 17 93 37 46 71 55 125 33z m-369 -881
c16 -24 16 -27 -2 -40 -16 -11 -20 -29 -23 -99 -3 -83 -4 -85 -31 -95 -16 -5
-31 -7 -34 -4 -10 11 -6 170 5 200 13 35 38 63 55 63 8 0 21 -11 30 -25z m594
-150 c0 -25 -1 -45 -2 -45 -2 0 -38 7 -81 15 -123 24 -281 20 -424 -11 l-33
-6 0 46 0 46 270 0 270 0 0 -45z m-176 -569 c69 -21 121 -59 152 -112 23 -39
27 -58 27 -118 0 -110 -29 -160 -197 -333 l-138 -143 176 0 176 0 0 -75 0 -75
-285 0 -285 0 0 68 0 67 146 150 c226 234 248 270 230 370 -12 63 -98 95 -165
60 -30 -15 -61 -68 -61 -104 0 -20 -5 -21 -86 -21 l-87 0 7 43 c10 64 52 142
94 173 77 59 198 79 296 50z"/>
</g>
</svg>
