<?xml version="1.0" standalone="no"?>
<!DOCTYPE svg PUBLIC "-//W3C//DTD SVG 20010904//EN"
 "http://www.w3.org/TR/2001/REC-SVG-20010904/DTD/svg10.dtd">
<svg version="1.0" xmlns="http://www.w3.org/2000/svg"
 width="259.989567pt" height="347.984223pt" viewBox="0 0 259.989567 347.984223"
 preserveAspectRatio="xMidYMid meet">
<metadata>
Created by potrace 1.12, written by Peter Selinger 2001-2015
</metadata>
<g transform="translate(-39.073120,354.001238) scale(0.100000,-0.100000)"
fill="#000000" stroke="none">
<path d="M444 3521 c-45 -27 -57 -65 -53 -170 4 -82 6 -93 30 -117 15 -14 42
-29 60 -33 l34 -7 5 -264 c5 -282 6 -287 59 -343 56 -61 61 -62 351 -59 146 1
270 -1 276 -5 11 -8 94 -149 94 -160 0 -3 -18 -23 -39 -44 -51 -49 -61 -87
-61 -234 l0 -121 -67 -43 c-91 -59 -229 -201 -288 -296 -62 -98 -118 -237
-141 -346 -21 -101 -23 -306 -4 -394 87 -412 382 -715 785 -806 131 -30 362
-23 488 15 436 131 737 527 737 972 0 352 -166 664 -458 858 l-72 48 0 129 c0
149 -9 180 -65 226 l-38 31 36 64 c63 112 27 101 333 103 291 2 299 3 356 59
55 56 58 72 58 355 l0 261 25 0 c37 0 70 19 88 50 23 38 24 188 2 230 -33 64
45 60 -1287 60 -1169 0 -1214 -1 -1244 -19z m1291 -385 c71 -30 79 -102 29
-254 -13 -40 -24 -79 -24 -88 0 -22 137 -294 201 -399 42 -69 64 -94 94 -110
58 -30 75 -70 75 -182 0 -51 -2 -93 -4 -93 -1 0 -17 5 -35 11 l-31 11 0 79 c0
88 -17 119 -64 119 -20 0 -35 17 -82 93 -85 136 -225 418 -262 530 -18 54 -35
126 -39 160 -4 54 -2 66 17 90 37 46 71 55 125 33z m-369 -881 c15 -22 15 -26
0 -40 -12 -12 -16 -36 -16 -94 0 -82 -5 -92 -47 -105 -23 -7 -23 -6 -23 94 0
119 17 164 62 169 4 1 15 -10 24 -24z m594 -151 c0 -45 0 -46 -27 -39 -114 28
-291 33 -418 10 -44 -8 -83 -15 -87 -15 -5 0 -8 20 -8 45 l0 45 270 0 270 0 0
-46z m53 -590 c55 -19 119 -84 148 -151 28 -67 42 -230 29 -354 -15 -145 -56
-224 -147 -280 -33 -21 -50 -24 -133 -24 -83 0 -101 3 -140 25 -56 32 -101 91
-126 166 -28 85 -28 353 0 434 34 97 85 157 161 187 44 17 154 15 208 -3z
m-493 -399 l0 -405 -80 0 -80 0 -2 320 -3 320 -65 -40 c-36 -21 -71 -39 -77
-40 -9 0 -13 20 -13 69 l0 69 88 55 c84 53 90 55 160 56 l72 1 0 -405z"/>
<path d="M1865 1386 c-32 -15 -52 -42 -66 -90 -13 -44 -12 -319 1 -368 16 -57
52 -88 105 -88 93 0 125 74 125 286 -1 95 -5 142 -18 178 -26 75 -87 109 -147
82z"/>
</g>
</svg>
