<?xml version="1.0" standalone="no"?>
<!DOCTYPE svg PUBLIC "-//W3C//DTD SVG 20010904//EN"
 "http://www.w3.org/TR/2001/REC-SVG-20010904/DTD/svg10.dtd">
<svg version="1.0" xmlns="http://www.w3.org/2000/svg"
 width="90.016351pt" height="84.540795pt" viewBox="0 0 90.016351 84.540795"
 preserveAspectRatio="xMidYMid meet">
<metadata>
Created by potrace 1.12, written by Peter Selinger 2001-2015
</metadata>
<g transform="translate(-9.339258,92.706586) scale(0.100000,-0.100000)"
fill="#000000" stroke="none">
<path d="M423 916 c-173 -56 -274 -203 -274 -398 0 -54 -6 -80 -24 -115 -35
-64 -39 -103 -21 -166 20 -67 71 -117 146 -142 51 -17 53 -17 79 2 l26 20 3
171 c2 164 2 172 -19 193 -18 18 -29 21 -72 16 l-50 -6 7 67 c9 87 44 160 107
216 61 55 121 76 217 76 177 0 312 -131 312 -301 l0 -57 -44 5 c-70 8 -82 -12
-91 -141 -4 -58 -5 -134 -3 -168 4 -51 9 -65 32 -85 34 -29 45 -29 117 3 63
29 100 71 118 138 12 47 -1 126 -28 164 -14 21 -19 51 -23 129 -5 93 -8 110
-42 177 -42 86 -97 140 -184 181 -47 23 -74 28 -152 31 -63 3 -109 -1 -137
-10z"/>
</g>
</svg>
