<?xml version="1.0" standalone="no"?>
<!DOCTYPE svg PUBLIC "-//W3C//DTD SVG 20010904//EN"
 "http://www.w3.org/TR/2001/REC-SVG-20010904/DTD/svg10.dtd">
<svg version="1.0" xmlns="http://www.w3.org/2000/svg"
 width="92.686226pt" height="91.923003pt" viewBox="0 0 92.686226 91.923003"
 preserveAspectRatio="xMidYMid meet">
<metadata>
Created by potrace 1.12, written by Peter Selinger 2001-2015
</metadata>
<g transform="translate(-6.747509,96.923003) scale(0.100000,-0.100000)"
fill="#000000" stroke="none">
<path d="M652 935 c-145 -53 -144 -55 11 -54 75 1 137 3 137 5 0 18 -35 84
-44 83 -6 0 -53 -16 -104 -34z"/>
<path d="M197 763 c-4 -54 -5 -210 -4 -348 l2 -250 352 -3 353 -2 0 350 0 350
-349 0 -348 0 -6 -97z m593 -253 l0 -220 -65 0 c-51 0 -65 3 -65 15 0 11 12
15 50 15 l50 0 0 90 0 89 -97 3 -98 3 0 35 c0 25 5 36 18 38 13 3 16 -2 15
-20 -3 -22 0 -23 80 -26 l82 -3 0 86 0 85 -80 0 -80 0 0 -40 c0 -33 -3 -40
-20 -40 -17 0 -20 7 -20 40 l0 40 -109 0 -109 0 -4 -81 c-2 -44 -1 -83 1 -85
2 -2 42 -4 88 -4 l83 0 0 -35 c0 -24 -5 -35 -15 -35 -8 0 -15 9 -15 20 0 18
-7 20 -70 20 l-70 0 -1 -70 c-1 -38 -2 -78 -3 -87 -1 -15 10 -18 72 -21 l72
-3 0 51 c0 38 4 50 15 50 11 0 15 -12 15 -50 l0 -50 46 0 c32 0 44 -4 41 -12
-3 -10 -41 -13 -148 -13 l-144 0 -3 218 -2 217 245 0 245 0 0 -220z"/>
<path d="M100 735 c-21 -8 -34 -19 -32 -28 1 -8 22 -74 46 -148 l44 -134 1
163 c1 176 4 170 -59 147z"/>
<path d="M930 389 l0 -111 28 7 c15 3 31 10 36 15 7 7 -51 200 -60 200 -2 0
-4 -50 -4 -111z"/>
<path d="M343 132 c-40 -2 -73 -7 -73 -11 0 -17 22 -71 29 -71 11 0 186 59
224 75 35 16 31 16 -180 7z"/>
</g>
</svg>
