<?xml version="1.0" standalone="no"?>
<!DOCTYPE svg PUBLIC "-//W3C//DTD SVG 20010904//EN"
 "http://www.w3.org/TR/2001/REC-SVG-20010904/DTD/svg10.dtd">
<svg version="1.0" xmlns="http://www.w3.org/2000/svg"
 width="143.899898pt" height="143.264971pt" viewBox="0 0 143.899898 143.264971"
 preserveAspectRatio="xMidYMid meet">
<metadata>
Created by potrace 1.12, written by Peter Selinger 2001-2015
</metadata>
<g transform="translate(-9.239987,153.368625) scale(0.100000,-0.100000)"
fill="#000000" stroke="none">
<path d="M400 1467 c-23 -78 -59 -198 -95 -317 -12 -41 -33 -109 -45 -150 -26
-89 -85 -289 -134 -454 -20 -66 -35 -120 -34 -122 3 -2 167 -50 438 -128 69
-19 139 -40 155 -45 83 -27 484 -145 508 -149 20 -3 27 0 27 11 0 13 108 390
184 642 75 249 132 456 127 459 -3 2 -208 63 -456 136 -247 72 -484 142 -525
155 -139 42 -125 45 -150 -38z m457 -517 c59 -17 112 -35 117 -40 7 -7 -55
-244 -68 -257 -2 -2 -61 13 -131 33 -146 44 -135 18 -82 197 20 70 36 106 43
103 7 -3 61 -19 121 -36z"/>
</g>
</svg>
