<?xml version="1.0" standalone="no"?>
<!DOCTYPE svg PUBLIC "-//W3C//DTD SVG 20010904//EN"
 "http://www.w3.org/TR/2001/REC-SVG-20010904/DTD/svg10.dtd">
<svg version="1.0" xmlns="http://www.w3.org/2000/svg"
 width="113.475395pt" height="246.000000pt" viewBox="0 0 113.475395 246.000000"
 preserveAspectRatio="xMidYMid meet">
<metadata>
Created by potrace 1.12, written by Peter Selinger 2001-2015
</metadata>
<g transform="translate(-29.500000,256.000000) scale(0.100000,-0.100000)"
fill="#000000" stroke="none">
<path d="M752 2477 c-68 -69 -82 -88 -82 -114 0 -53 50 -69 101 -32 l29 20 0
-48 c0 -61 21 -93 60 -93 39 0 60 32 60 93 l0 48 29 -20 c51 -37 101 -21 101
32 0 27 -13 45 -83 115 -59 59 -89 82 -107 82 -18 0 -48 -23 -108 -83z"/>
<path d="M716 2075 c-185 -51 -339 -202 -399 -390 -21 -65 -22 -88 -22 -355 0
-267 1 -290 22 -355 61 -191 215 -340 403 -390 71 -19 209 -19 280 0 92 24
180 75 251 145 112 110 144 191 88 221 -34 17 -65 3 -92 -44 -81 -138 -223
-218 -387 -218 -210 0 -382 132 -435 336 -16 64 -22 421 -7 411 26 -16 278
-37 442 -37 164 0 416 21 442 37 4 3 8 -45 8 -105 0 -98 2 -113 20 -131 28
-28 55 -25 80 8 22 26 22 33 17 222 -4 161 -8 206 -26 260 -60 187 -215 336
-401 385 -68 18 -218 18 -284 0z m84 -336 l0 -230 -82 6 c-81 6 -301 34 -306
39 -8 9 23 121 48 171 50 103 136 179 250 223 97 37 90 54 90 -209z m202 212
c151 -52 266 -182 298 -337 7 -31 10 -57 8 -59 -5 -5 -218 -33 -305 -40 l-83
-6 0 230 c0 187 3 231 13 231 8 0 39 -9 69 -19z"/>
<path d="M816 428 c-9 -13 -16 -43 -16 -71 l0 -48 -29 20 c-51 37 -101 21
-101 -32 0 -27 13 -45 83 -115 59 -59 89 -82 107 -82 18 0 48 23 108 83 68 69
82 88 82 114 0 53 -50 69 -101 32 l-29 -20 0 48 c0 28 -7 58 -16 71 -20 30
-68 30 -88 0z"/>
</g>
</svg>
