<?xml version="1.0" standalone="no"?>
<!DOCTYPE svg PUBLIC "-//W3C//DTD SVG 20010904//EN"
 "http://www.w3.org/TR/2001/REC-SVG-20010904/DTD/svg10.dtd">
<svg version="1.0" xmlns="http://www.w3.org/2000/svg"
 width="89.241145pt" height="90.570444pt" viewBox="0 0 89.241145 90.570444"
 preserveAspectRatio="xMidYMid meet">
<metadata>
Created by potrace 1.12, written by Peter Selinger 2001-2015
</metadata>
<g transform="translate(-6.660786,92.095252) scale(0.100000,-0.100000)"
fill="#000000" stroke="none">
<path d="M440 918 c-150 -21 -284 -134 -347 -291 -35 -88 -35 -225 0 -314 112
-280 429 -384 670 -219 79 53 148 144 177 230 18 55 21 83 18 164 -5 116 -30
189 -92 265 -46 58 -147 130 -204 147 -58 18 -162 26 -222 18z m112 -205 c36
-32 12 -103 -35 -103 -49 0 -75 64 -40 102 20 22 51 23 75 1z m14 -298 l0
-140 32 -3 c28 -3 32 -7 32 -33 l0 -29 -114 0 c-100 0 -114 2 -118 18 -8 30 3
42 38 42 l34 0 0 115 0 115 -34 0 c-35 0 -46 12 -38 43 4 16 15 17 86 15 l81
-3 1 -140z"/>
</g>
</svg>
