<?xml version="1.0" standalone="no"?>
<!DOCTYPE svg PUBLIC "-//W3C//DTD SVG 20010904//EN"
 "http://www.w3.org/TR/2001/REC-SVG-20010904/DTD/svg10.dtd">
<svg version="1.0" xmlns="http://www.w3.org/2000/svg"
 width="144.180896pt" height="144.064983pt" viewBox="0 0 144.180896 144.064983"
 preserveAspectRatio="xMidYMid meet">
<metadata>
Created by potrace 1.12, written by Peter Selinger 2001-2015
</metadata>
<g transform="translate(-21.136945,167.564983) scale(0.100000,-0.100000)"
fill="#000000" stroke="none">
<path d="M824 1671 c-297 -48 -533 -276 -595 -575 -24 -115 -24 -168 1 -285
53 -260 231 -461 484 -548 74 -26 93 -28 226 -28 163 0 197 8 335 78 116 59
244 190 302 307 59 121 76 193 76 330 0 88 -5 133 -21 193 -86 307 -347 519
-656 532 -55 2 -124 0 -152 -4z m76 -222 l0 -162 -57 6 c-93 9 -163 27 -163
43 0 22 46 120 80 169 32 47 102 105 127 105 10 0 13 -33 13 -161z m136 132
c21 -15 47 -37 57 -48 29 -33 109 -195 100 -204 -11 -11 -146 -39 -189 -39
l-34 0 0 160 c0 179 0 180 66 131z m-306 -5 c0 -2 -16 -28 -35 -58 -20 -29
-45 -79 -57 -110 -11 -32 -26 -58 -34 -58 -17 0 -95 35 -119 54 -20 15 -20 16
10 41 75 64 235 153 235 131z m493 -31 c79 -39 177 -112 177 -130 0 -11 -108
-65 -130 -65 -5 0 -29 42 -54 93 -25 50 -53 102 -62 115 -22 30 -11 28 69 -13z
m-713 -226 c41 -19 77 -34 78 -36 3 -1 -15 -134 -36 -258 l-7 -40 -127 -3
c-76 -2 -129 1 -132 7 -10 16 13 142 39 204 31 77 87 169 100 163 5 -2 44 -19
85 -37z m967 8 c55 -81 112 -236 113 -309 0 -36 -16 -40 -155 -36 l-110 3 -7
60 c-11 86 -27 186 -34 212 -5 20 3 27 77 62 46 22 86 40 89 40 3 1 15 -14 27
-32z m-742 -82 c33 -8 84 -15 113 -15 l53 0 -3 -122 -3 -123 -135 0 -135 0 1
65 c0 86 23 210 37 210 7 -1 39 -7 72 -15z m495 -37 c6 -29 14 -92 17 -140 l6
-88 -35 0 c-19 0 -83 3 -142 7 l-107 6 3 116 3 116 80 7 c44 3 91 11 105 17
49 19 58 14 70 -41z m-675 -345 c3 -32 13 -98 21 -146 9 -49 14 -90 12 -92 -2
-1 -41 -20 -87 -42 l-83 -40 -33 51 c-55 87 -105 235 -105 314 0 9 33 12 134
12 l135 0 6 -57z m345 -62 l0 -119 -64 -7 c-35 -3 -89 -12 -120 -19 -49 -12
-56 -11 -61 3 -12 29 -35 175 -35 219 l0 42 140 0 140 0 0 -119z m350 59 c0
-49 -25 -208 -34 -217 -1 -1 -20 2 -42 9 -21 6 -77 16 -124 22 -47 6 -84 14
-82 19 1 4 2 57 2 117 l0 110 140 0 140 0 0 -60z m340 29 c0 -74 -66 -254
-119 -320 l-20 -26 -83 40 c-46 22 -84 41 -86 42 -1 1 4 33 12 71 8 38 17 104
21 147 l7 77 134 0 134 0 0 -31z m-690 -429 c0 -187 -3 -191 -87 -115 -72 64
-154 228 -121 240 16 6 167 33 191 34 15 1 17 -13 17 -159z m234 134 c32 -7
60 -14 61 -16 7 -7 -54 -139 -82 -178 -37 -49 -100 -100 -124 -100 -18 0 -19
11 -19 160 l0 161 53 -7 c28 -3 78 -12 111 -20z m-495 -101 c14 -33 40 -83 58
-111 18 -29 27 -52 21 -52 -41 0 -254 138 -246 161 4 11 119 68 132 65 5 -1
21 -29 35 -63z m695 36 c36 -17 66 -34 66 -38 0 -25 -204 -161 -241 -161 -16
0 -14 6 12 44 26 40 67 122 82 169 4 9 8 17 11 17 2 0 34 -14 70 -31z"/>
</g>
</svg>
