<?xml version="1.0" standalone="no"?>
<!DOCTYPE svg PUBLIC "-//W3C//DTD SVG 20010904//EN"
 "http://www.w3.org/TR/2001/REC-SVG-20010904/DTD/svg10.dtd">
<svg version="1.0" xmlns="http://www.w3.org/2000/svg"
 width="167.918045pt" height="157.509078pt" viewBox="0 0 167.918045 157.509078"
 preserveAspectRatio="xMidYMid meet">
<metadata>
Created by potrace 1.12, written by Peter Selinger 2001-2015
</metadata>
<g transform="translate(-19.081955,190.948005) scale(0.100000,-0.100000)"
fill="#000000" stroke="none">
<path d="M870 1900 c-8 -5 -38 -89 -66 -187 l-51 -178 138 -3 c77 -1 201 -1
278 0 l138 3 -56 178 c-31 98 -63 182 -71 187 -19 13 -290 13 -310 0z"/>
<path d="M710 1391 c-11 -22 -70 -205 -100 -315 l-19 -69 47 7 c292 38 452 41
680 10 62 -8 121 -14 131 -12 16 3 12 23 -43 198 l-61 195 -312 3 c-302 2
-312 2 -323 -17z"/>
<path d="M825 924 c-16 -2 -73 -9 -125 -15 -116 -13 -482 -78 -493 -88 -4 -4
-10 -37 -14 -74 -4 -50 -3 -67 6 -67 7 0 106 16 219 35 535 89 724 89 1230 -1
106 -19 200 -34 208 -34 11 0 14 16 14 69 l0 69 -87 20 c-276 64 -433 83 -698
87 -126 2 -243 1 -260 -1z"/>
<path d="M720 652 c-120 -60 -98 -278 32 -313 31 -8 46 -6 82 9 114 51 124
227 16 299 -40 27 -83 29 -130 5z"/>
<path d="M1225 660 c-58 -24 -102 -112 -91 -182 14 -87 66 -138 141 -138 119
0 185 152 115 265 -33 53 -109 79 -165 55z"/>
</g>
</svg>
