<?xml version="1.0" standalone="no"?>
<!DOCTYPE svg PUBLIC "-//W3C//DTD SVG 20010904//EN"
 "http://www.w3.org/TR/2001/REC-SVG-20010904/DTD/svg10.dtd">
<svg version="1.0" xmlns="http://www.w3.org/2000/svg"
 width="1547.638989pt" height="698.797078pt" viewBox="0 0 1547.638989 698.797078"
 preserveAspectRatio="xMidYMid meet">
<metadata>
Created by potrace 1.12, written by Peter Selinger 2001-2015
</metadata>
<g transform="translate(-160.312788,803.944602) scale(0.100000,-0.100000)"
fill="#000000" stroke="none">
<path d="M8998 8024 c-55 -29 -63 -62 -60 -244 4 -274 43 -825 62 -875 21 -55
32 -26 81 210 58 286 80 435 86 605 6 191 -2 237 -52 287 -37 37 -72 42 -117
17z"/>
<path d="M8252 7577 c-31 -33 -28 -83 6 -138 16 -24 84 -96 152 -159 127 -119
302 -310 358 -393 28 -39 52 -60 52 -43 0 15 -158 353 -192 410 -101 173 -203
303 -259 331 -43 23 -92 19 -117 -8z"/>
<path d="M9675 7485 c-53 -18 -132 -105 -228 -248 -110 -164 -291 -489 -280
-501 3 -3 67 58 142 136 75 78 198 194 273 259 189 161 218 197 218 264 0 47
-13 71 -50 90 -16 8 -30 15 -32 15 -2 -1 -21 -7 -43 -15z"/>
<path d="M14950 7490 c-206 -33 -460 -154 -510 -242 -13 -25 -13 -29 1 -44 15
-14 20 -13 64 20 65 50 196 112 291 137 113 31 370 38 531 14 287 -41 540
-135 759 -281 100 -66 258 -214 324 -303 25 -33 53 -60 63 -61 22 0 22 12 -4
63 -158 309 -562 582 -1004 677 -112 24 -415 36 -515 20z"/>
<path d="M11915 7333 c-233 -21 -605 -104 -605 -134 0 -14 23 -11 146 21 135
35 379 69 553 77 151 7 159 -9 14 -26 -290 -36 -613 -111 -613 -143 0 -13 15
-10 134 21 227 60 362 76 666 76 300 0 356 -7 563 -65 123 -35 239 -81 389
-156 59 -30 112 -54 118 -54 28 0 3 35 -57 80 -201 147 -469 250 -766 294
-100 15 -421 20 -542 9z"/>
<path d="M14970 7330 c-153 -14 -295 -69 -400 -155 -54 -45 -130 -144 -130
-171 0 -32 31 -24 86 21 32 25 69 52 84 60 15 8 43 33 62 57 20 24 60 58 89
75 59 35 210 77 322 88 37 4 67 11 67 15 0 8 -64 21 -90 18 -8 0 -49 -4 -90
-8z"/>
<path d="M15021 7165 c-123 -24 -181 -45 -186 -69 -8 -40 -13 -105 -9 -109 3
-2 33 2 67 9 34 7 73 13 87 13 14 0 -29 -12 -95 -25 -155 -31 -241 -62 -280
-99 -26 -25 -37 -51 -65 -158 l-35 -129 -33 6 c-42 6 -110 48 -220 135 -132
103 -163 114 -233 78 -82 -41 -130 -187 -130 -392 0 -104 22 -250 40 -268 7
-7 103 27 129 46 8 6 12 41 12 106 0 110 15 228 31 248 15 17 32 7 146 -83 92
-72 170 -116 230 -128 35 -8 31 -13 54 83 11 42 20 58 44 72 37 23 41 14 21
-53 -8 -29 -22 -107 -31 -173 -24 -179 -27 -190 -51 -193 -27 -4 -32 -27 -40
-191 -6 -112 6 -322 22 -403 8 -38 -5 -35 -66 13 -68 54 -126 134 -199 279
-62 121 -91 160 -77 104 12 -48 110 -247 160 -323 65 -101 118 -211 101 -211
-7 0 -127 161 -168 223 -21 32 -58 100 -83 150 -26 51 -48 93 -49 95 -2 2 -19
-7 -39 -20 -41 -27 -41 -35 7 -116 82 -138 269 -342 365 -398 25 -14 43 -39
71 -99 21 -44 50 -98 65 -120 38 -57 168 -187 237 -237 59 -42 59 -43 59 -95
0 -67 -36 -166 -85 -233 -37 -51 -39 -52 -79 -46 -38 6 -44 4 -76 -29 -21 -21
-30 -38 -24 -44 5 -5 43 -16 84 -26 66 -16 165 -43 463 -130 68 -20 79 -21 84
-8 11 29 -11 68 -50 86 -23 12 -37 26 -37 37 0 11 -9 43 -21 72 -15 40 -19 64
-14 97 13 89 69 191 104 191 9 0 58 11 108 24 111 29 224 83 306 147 55 43 63
46 90 37 72 -26 272 19 414 91 332 168 652 538 783 906 63 179 51 288 -38 328
-57 25 -109 20 -251 -22 -116 -35 -221 -54 -244 -45 -13 5 -14 11 -3 42 28 81
48 183 42 217 -4 22 -22 49 -52 77 -44 42 -72 63 -206 155 -38 25 -68 48 -68
50 0 7 70 -37 113 -70 42 -32 47 -30 66 27 13 38 13 39 -25 78 -75 78 -247
198 -377 263 -141 70 -237 105 -391 142 -129 31 -362 40 -475 18z m291 -191
c210 -29 388 -84 579 -179 118 -59 275 -161 340 -222 50 -46 83 -95 73 -106
-3 -3 -56 28 -119 68 -290 186 -577 295 -888 340 -186 27 -488 10 -593 -34
-18 -8 -20 -6 -16 15 5 27 50 51 164 85 73 21 230 46 305 48 23 1 93 -6 155
-15z m153 -764 c5 -107 11 -153 21 -161 7 -6 73 -32 146 -58 73 -25 132 -50
131 -55 -1 -4 -55 -26 -120 -48 -178 -59 -163 -37 -156 -235 3 -93 3 -166 0
-163 -3 3 -36 50 -73 105 -72 108 -109 156 -129 168 -15 8 -143 -30 -230 -69
-32 -13 -61 -24 -65 -22 -5 2 27 59 71 126 43 68 79 131 79 139 0 19 -45 82
-119 167 -34 39 -57 74 -53 78 5 5 62 -7 128 -25 191 -55 167 -56 219 15 25
35 65 91 88 125 23 35 45 63 48 63 4 0 10 -67 14 -150z m833 -135 c4 -3 -34
-106 -63 -172 -16 -37 -34 -63 -43 -63 -8 0 -21 -8 -28 -17 -15 -20 -15 -21
46 168 37 114 34 112 88 84z m422 -82 c0 -29 -66 -180 -111 -257 -185 -314
-454 -545 -705 -605 -75 -17 -102 -19 -78 -3 15 9 128 168 180 252 86 138 227
425 258 525 5 18 15 20 88 20 71 1 101 7 203 42 134 47 165 52 165 26z m-1975
-983 c65 -95 48 -90 -21 6 -45 62 -124 220 -124 245 0 8 20 -26 44 -76 23 -49
69 -128 101 -175z m1105 215 c0 -32 -125 -165 -232 -246 -42 -33 -79 -59 -82
-59 -3 0 33 37 81 83 47 45 115 119 150 165 36 45 69 82 74 82 5 0 9 -11 9
-25z"/>
<path d="M14315 7098 c-11 -34 -9 -52 7 -56 19 -4 35 38 23 57 -9 15 -25 14
-30 -1z"/>
<path d="M3625 7069 c-500 -45 -1096 -326 -1444 -679 -94 -94 -185 -209 -215
-269 -53 -104 -71 -226 -42 -294 33 -81 144 -135 293 -144 l91 -6 17 34 c78
152 292 396 475 542 233 187 471 312 725 383 87 24 119 28 240 28 128 1 144
-1 188 -23 66 -33 122 -99 137 -163 55 -229 -171 -566 -504 -751 -98 -54 -186
-91 -186 -77 0 13 91 229 161 379 42 92 50 118 43 139 -17 46 -28 47 -241 22
-214 -25 -258 -37 -272 -72 -19 -44 -233 -584 -260 -653 -15 -38 -67 -171
-116 -295 -114 -293 -193 -518 -211 -603 -21 -101 -19 -219 4 -240 24 -22 139
-23 276 -2 102 15 146 34 146 61 0 18 80 258 121 364 16 41 73 194 128 340 88
239 101 265 122 268 13 2 69 14 124 27 144 34 235 40 323 21 186 -39 303 -157
319 -321 15 -166 -64 -336 -245 -527 -297 -311 -820 -548 -1213 -548 -165 0
-272 33 -341 104 -59 60 -73 99 -73 196 0 75 3 91 29 138 16 29 45 70 64 92
27 33 36 53 42 103 10 78 24 132 61 224 34 87 36 109 9 123 -31 17 -167 -20
-277 -76 -249 -125 -460 -419 -510 -711 -38 -228 34 -450 183 -565 69 -52 97
-68 188 -102 262 -99 674 -80 1096 51 361 111 657 258 938 467 131 97 372 336
434 431 86 132 168 321 168 391 0 46 17 24 23 -28 25 -245 221 -374 418 -276
76 37 224 181 279 271 19 31 38 57 41 57 3 0 23 -25 44 -56 21 -30 63 -73 94
-95 76 -54 143 -72 251 -67 79 4 95 8 183 52 75 37 115 66 186 132 50 47 113
117 141 155 46 64 70 79 70 45 0 -7 14 -40 31 -74 54 -109 161 -182 266 -182
124 0 251 98 358 276 28 46 36 53 40 38 49 -155 90 -211 175 -239 129 -43 264
26 371 189 22 33 39 57 40 55 0 -2 2 -15 5 -29 26 -156 147 -217 305 -153 49
19 59 37 59 105 0 65 29 210 65 320 33 104 141 329 200 418 50 76 120 144 137
134 17 -11 3 -132 -32 -273 -66 -267 -81 -485 -42 -574 22 -50 64 -83 120 -93
40 -8 132 9 181 34 l36 17 11 115 c7 63 24 162 38 219 59 230 205 531 304 625
33 30 62 30 62 -1 0 -27 -26 -162 -56 -298 -35 -156 -41 -407 -11 -492 42
-121 151 -189 261 -164 68 16 133 59 207 138 34 37 59 58 56 47 -4 -10 -16
-68 -27 -129 -11 -60 -25 -132 -31 -160 -20 -97 -23 -304 -6 -372 34 -132 97
-216 185 -250 37 -14 49 -15 76 -4 38 16 38 16 106 -4 44 -12 64 -13 100 -5
61 15 133 69 167 127 25 42 28 58 28 133 0 72 -4 93 -26 135 -38 74 -92 108
-180 113 l-69 4 5 32 c3 17 21 117 40 223 19 105 35 194 35 198 0 4 13 -4 29
-18 82 -68 197 -92 306 -62 333 90 565 625 454 1045 -25 92 -56 147 -110 193
-114 98 -276 62 -424 -94 l-62 -66 5 67 c4 63 3 69 -26 101 -27 31 -34 33 -83
32 -62 -2 -208 -37 -226 -56 -7 -6 -17 -54 -23 -106 -13 -112 -17 -132 -82
-366 -84 -303 -86 -309 -148 -403 -128 -193 -200 -203 -200 -26 0 107 20 216
81 454 56 215 58 254 18 336 -40 84 -153 134 -249 113 -64 -14 -155 -66 -217
-123 -52 -47 -162 -195 -198 -266 -16 -31 -19 -33 -26 -15 -4 11 -8 36 -8 56
-1 55 -40 156 -72 189 -47 46 -144 64 -206 38 -98 -42 -206 -149 -308 -307
-25 -39 -47 -71 -48 -71 -1 0 -2 58 -2 129 0 149 -11 175 -81 200 -48 17 -179
1 -228 -27 -31 -18 -31 -18 -37 -128 -7 -105 -21 -188 -54 -304 -24 -88 -65
-267 -65 -288 0 -25 -132 -224 -166 -251 -33 -26 -49 -26 -73 -2 -47 47 -35
234 30 501 22 91 43 188 46 216 5 46 3 54 -26 86 -43 50 -183 121 -241 124
-25 1 -72 9 -105 18 -115 31 -253 15 -359 -42 -65 -35 -164 -128 -220 -205
-24 -34 -66 -107 -93 -162 -66 -131 -97 -231 -119 -375 -14 -92 -204 -294
-334 -354 -157 -73 -269 9 -289 210 -20 202 65 471 191 609 95 105 167 78 152
-57 -5 -48 -4 -62 11 -78 46 -51 184 0 224 83 29 60 29 157 0 198 -42 59 -183
109 -309 109 -185 0 -341 -97 -470 -293 -109 -165 -167 -348 -177 -557 l-6
-125 -54 -83 c-55 -83 -119 -142 -154 -142 -28 0 -50 43 -56 107 -10 114 42
366 162 777 48 163 45 180 -35 184 -64 4 -236 -14 -283 -30 -56 -19 -74 -43
-81 -111 -7 -63 -16 -102 -105 -450 -27 -108 -55 -232 -61 -274 -11 -84 -20
-106 -20 -51 0 56 -37 186 -75 262 -74 150 -200 263 -360 323 -41 15 -74 31
-72 34 1 3 48 43 103 87 296 238 444 528 399 784 -44 253 -262 435 -591 493
-110 19 -288 25 -409 14z m6739 -859 c62 -23 75 -256 23 -426 -48 -154 -126
-281 -207 -335 -37 -26 -52 -30 -88 -26 -27 3 -53 14 -69 28 -23 22 -25 29
-20 84 10 99 74 300 137 430 67 136 116 207 163 235 38 23 30 22 61 10z
m-3273 -200 c10 -6 25 -23 33 -39 14 -26 12 -41 -34 -212 -50 -190 -104 -334
-166 -448 -61 -113 -112 -153 -165 -131 -43 18 -54 59 -53 205 0 117 4 140 31
225 39 119 53 152 99 231 49 83 90 135 128 159 34 21 96 26 127 10z m282 -39
c34 -13 36 -49 5 -79 -35 -32 -156 -54 -202 -36 -29 11 -19 63 19 101 34 34
38 36 93 30 31 -3 69 -10 85 -16z"/>
<path d="M12239 6995 c-129 -68 -209 -236 -145 -300 39 -39 69 -41 123 -10
140 81 149 85 193 85 26 0 71 -11 105 -26 33 -14 86 -35 119 -46 54 -19 61
-19 91 -5 84 40 163 139 172 216 5 44 3 52 -20 75 -31 31 -65 33 -98 7 -81
-62 -148 -65 -269 -11 -102 46 -203 52 -271 15z"/>
<path d="M5024 6686 c-91 -42 -146 -142 -147 -265 -1 -159 84 -261 218 -261
94 0 172 56 217 155 26 58 30 183 9 248 -42 124 -176 179 -297 123z"/>
<path d="M13505 6660 c-137 -21 -259 -105 -361 -247 -84 -117 -153 -293 -170
-436 -6 -50 -15 -69 -64 -136 -61 -83 -95 -111 -134 -111 -75 0 -69 186 14
478 50 178 51 209 8 251 -48 47 -186 114 -220 107 -16 -3 -45 3 -70 14 -33 15
-66 20 -136 20 -106 0 -183 -21 -272 -75 -171 -104 -327 -371 -365 -623 -13
-88 -16 -95 -62 -148 -58 -68 -149 -138 -223 -173 -79 -38 -172 -37 -222 1
-41 31 -71 98 -72 160 l-1 41 60 14 c203 46 407 223 475 411 64 178 -42 328
-240 340 -157 9 -271 -38 -395 -162 -112 -113 -189 -252 -231 -418 -14 -55
-19 -109 -19 -218 0 -128 3 -153 24 -210 13 -36 34 -81 47 -101 80 -128 253
-191 424 -155 138 29 310 136 405 251 l38 47 29 -50 c80 -139 233 -194 368
-131 72 34 146 102 206 190 l48 70 11 -48 c28 -121 112 -193 226 -193 95 0
221 82 314 203 28 36 53 66 57 66 4 1 10 -9 14 -21 11 -35 95 -118 146 -144
187 -95 418 -25 574 173 27 34 65 91 84 126 47 85 54 93 114 120 65 30 116 80
109 106 -3 11 -13 27 -24 36 -15 14 -24 15 -50 6 -18 -6 -45 -11 -61 -11 -26
0 -32 7 -58 64 -45 98 -60 181 -60 327 l0 130 -62 29 c-70 31 -147 42 -223 30z
m136 -169 c22 -18 24 -26 24 -118 0 -89 -3 -105 -33 -170 -38 -84 -39 -109
-11 -165 26 -51 18 -85 -39 -174 -55 -84 -93 -114 -147 -114 -36 0 -48 5 -69
30 -14 17 -31 50 -37 73 -16 60 -5 226 22 312 25 84 99 229 137 270 69 76 110
91 153 56z m-1161 -78 l30 -28 -55 -180 c-64 -205 -151 -395 -215 -467 -34
-40 -48 -48 -76 -48 -69 0 -92 61 -81 216 12 175 134 425 246 509 49 35 110
35 151 -2z m250 -33 c25 -25 17 -44 -28 -72 -26 -16 -50 -22 -89 -21 -67 2
-76 7 -68 46 9 42 17 49 62 57 69 14 102 11 123 -10z m-1272 -2 c7 -7 12 -32
12 -57 0 -68 -46 -156 -126 -241 -62 -65 -144 -130 -166 -130 -15 0 -8 43 23
134 69 202 200 351 257 294z"/>
<path d="M14497 6274 c-15 -15 -6 -32 13 -27 12 3 19 10 17 16 -4 14 -21 19
-30 11z"/>
<path d="M14500 6166 c0 -8 5 -18 10 -21 6 -3 10 3 10 14 0 12 -4 21 -10 21
-5 0 -10 -6 -10 -14z"/>
<path d="M14490 6116 c0 -8 5 -18 10 -21 6 -3 10 3 10 14 0 12 -4 21 -10 21
-5 0 -10 -6 -10 -14z"/>
<path d="M12235 5244 c-159 -28 -179 -41 -196 -123 -6 -31 -32 -137 -56 -236
-43 -174 -101 -435 -164 -735 -17 -80 -42 -188 -55 -240 -14 -52 -45 -174 -70
-270 -44 -167 -48 -178 -102 -253 -112 -156 -196 -208 -221 -136 -6 18 -11 58
-11 89 0 107 23 212 136 620 41 147 27 227 -56 304 -55 51 -91 62 -186 53
-147 -14 -352 -175 -495 -388 l-24 -36 3 116 c2 103 0 120 -18 149 -30 48 -79
66 -165 58 -80 -6 -168 -30 -188 -50 -9 -10 -16 -50 -20 -123 -5 -90 -18 -158
-81 -407 -70 -274 -80 -303 -119 -365 -65 -99 -139 -183 -181 -206 l-38 -20
-19 24 c-15 19 -19 39 -19 111 0 130 43 332 145 685 74 257 72 275 -33 275
-124 -1 -305 -33 -331 -59 -12 -12 -21 -48 -29 -124 -7 -66 -36 -201 -76 -354
-36 -137 -70 -276 -76 -311 -8 -48 -23 -81 -62 -140 -104 -156 -184 -231 -229
-217 -29 9 -39 45 -39 137 0 116 39 294 120 542 88 272 92 335 22 409 -48 51
-97 70 -172 65 -57 -3 -84 -12 -171 -55 -113 -57 -203 -86 -246 -81 -21 2 -29
10 -33 33 -15 72 -78 115 -169 115 -60 0 -98 -17 -135 -60 -52 -62 -72 -208
-41 -295 40 -110 -10 -333 -127 -570 -30 -59 -169 -277 -174 -272 -3 2 28 186
101 607 50 293 50 300 -43 326 -31 9 -91 28 -132 41 -41 14 -102 27 -135 28
-33 1 -84 8 -114 14 -77 16 -223 14 -295 -5 -134 -34 -285 -133 -398 -261
-118 -133 -208 -304 -265 -503 -30 -105 -43 -333 -24 -432 43 -222 225 -362
413 -318 91 21 166 68 273 172 55 54 101 98 101 98 1 0 -6 -35 -16 -77 -9 -43
-23 -104 -29 -135 -12 -54 -16 -60 -59 -85 -478 -273 -687 -434 -823 -634 -96
-141 -123 -218 -123 -344 0 -110 20 -162 91 -233 62 -62 121 -89 221 -104 134
-20 261 5 414 82 99 49 171 105 279 216 212 218 346 514 449 994 l42 195 69
63 c84 78 230 251 293 349 95 147 210 399 276 606 26 79 36 98 53 101 61 11
232 34 234 32 2 -2 -13 -59 -33 -127 -88 -304 -113 -416 -121 -549 -11 -194
34 -338 125 -405 90 -66 196 -70 303 -14 72 39 182 138 246 223 25 33 49 65
53 69 4 4 17 -20 30 -54 58 -162 216 -222 375 -144 65 32 175 132 235 214 l44
61 11 -53 c22 -111 78 -160 183 -158 63 1 183 33 199 54 6 6 15 59 22 117 22
204 107 465 214 662 89 164 226 322 272 316 17 -3 20 -10 18 -51 -1 -26 -15
-105 -32 -175 -100 -413 -94 -645 18 -765 69 -76 187 -90 299 -37 62 29 188
142 240 215 l21 30 1 -43 c0 -88 58 -155 146 -168 53 -8 191 23 216 48 12 12
18 33 18 63 0 141 96 458 205 675 82 165 227 350 274 350 35 0 32 -36 -29
-280 -58 -231 -74 -349 -67 -483 4 -84 10 -108 37 -163 53 -108 131 -152 251
-141 75 7 145 40 230 111 57 48 141 139 170 185 9 14 11 14 22 -3 85 -131 146
-184 250 -217 97 -30 261 -24 360 14 176 68 320 205 431 410 26 48 54 87 61
87 7 0 27 -13 44 -29 38 -35 36 -51 -14 -156 -18 -38 -32 -72 -30 -75 2 -4 48
8 102 26 238 77 418 100 675 83 196 -12 260 -5 296 34 23 25 92 232 92 276 0
47 -28 68 -130 100 -52 16 -167 55 -255 86 -196 69 -350 107 -520 130 -72 9
-146 21 -166 26 l-37 9 -22 98 c-61 270 -206 419 -417 430 -109 6 -190 -11
-288 -58 -141 -68 -265 -200 -353 -375 -88 -176 -132 -353 -132 -528 l0 -89
-52 -75 c-124 -180 -207 -189 -208 -22 0 116 32 271 125 598 21 76 35 146 35
180 -1 136 -93 225 -233 224 -57 0 -79 -6 -143 -38 -89 -43 -195 -139 -287
-259 -34 -43 -63 -73 -65 -67 -6 18 26 193 64 351 20 80 71 251 115 380 110
322 113 335 98 371 -25 62 -82 72 -244 43z m1573 -860 c13 -9 28 -28 34 -43
17 -41 37 -161 37 -223 1 -51 -1 -58 -19 -58 -46 0 -54 -89 -15 -163 24 -44
25 -52 15 -106 -25 -141 -102 -310 -180 -394 -41 -44 -51 -50 -95 -54 -71 -6
-106 19 -136 94 -28 72 -37 244 -19 365 34 235 156 494 267 567 52 35 78 38
111 15z m-6125 -677 c62 -27 64 -34 33 -175 -66 -301 -177 -546 -320 -704 -62
-69 -143 -97 -197 -68 -69 37 -83 241 -29 437 57 208 226 453 351 507 43 19
120 20 162 3z m7030 -3 c43 -4 77 -10 77 -13 0 -3 -41 -4 -90 -2 -105 4 -188
-9 -296 -45 -58 -20 -79 -23 -88 -14 -21 21 36 58 101 65 32 3 67 7 78 9 39 6
143 6 218 0z m-7354 -1656 c-35 -89 -85 -191 -115 -235 -33 -47 -202 -174
-280 -210 -61 -28 -124 -41 -124 -26 0 18 96 156 148 213 27 30 83 83 124 118
78 67 248 191 260 192 4 0 -2 -24 -13 -52z"/>
<path d="M14380 5135 c0 -39 87 -170 177 -266 52 -56 99 -113 104 -126 5 -13
9 -51 9 -83 0 -99 16 -113 63 -55 55 69 59 118 10 147 -38 22 -198 188 -250
258 -22 31 -50 74 -62 98 -21 41 -51 57 -51 27z"/>
<path d="M16900 5122 c-25 -10 -97 -52 -160 -92 -188 -119 -334 -201 -523
-294 -108 -53 -175 -91 -171 -97 8 -13 124 -6 277 17 295 43 656 197 734 313
31 47 30 93 -4 131 -36 40 -90 48 -153 22z"/>
<path d="M14030 4994 c0 -10 49 -54 61 -54 5 0 9 6 9 13 0 12 -12 21 -62 45
-5 2 -8 0 -8 -4z"/>
<path d="M14271 4916 c-19 -23 -10 -46 32 -79 53 -43 68 -26 36 40 -25 51 -48
64 -68 39z"/>
<path d="M15645 4745 c-61 -45 -185 -101 -289 -130 -63 -18 -111 -59 -121
-104 -7 -34 26 -104 68 -141 37 -33 47 -30 47 12 0 43 27 95 66 124 18 14 74
39 126 56 51 16 102 35 113 40 46 23 135 124 135 153 0 6 -63 35 -77 35 -5 0
-35 -20 -68 -45z"/>
<path d="M6243 4675 c-39 -7 -95 -26 -125 -41 -91 -49 -316 -288 -490 -521
-95 -126 -309 -450 -374 -563 -71 -125 -63 -120 -163 -120 -170 0 -349 -34
-431 -82 -52 -31 -110 -89 -110 -111 0 -23 53 -97 103 -146 39 -37 28 -36 193
-12 150 23 149 36 17 -199 -63 -113 -159 -290 -212 -395 l-96 -190 1 -75 c0
-111 48 -191 140 -236 49 -24 63 -26 127 -21 110 9 135 21 147 70 22 94 95
297 147 416 82 187 312 654 326 663 7 4 140 8 296 8 l283 0 -6 -32 c-3 -18 -9
-150 -12 -293 -7 -290 0 -389 42 -555 33 -132 72 -209 137 -274 63 -62 126
-86 231 -86 79 0 127 19 160 63 l19 26 -32 81 c-45 113 -87 288 -101 419 -12
110 -8 567 6 653 6 35 9 37 73 57 94 29 124 62 128 144 5 87 -13 109 -96 115
-33 2 -61 7 -61 9 0 3 9 67 20 142 60 422 73 548 74 706 1 109 -3 142 -22 202
-48 155 -154 210 -339 178z m-99 -512 c-6 -91 -19 -224 -59 -568 -9 -77 -20
-143 -24 -148 -4 -4 -109 -6 -234 -5 l-227 3 85 149 c105 185 269 433 375 565
44 56 82 101 85 101 2 0 2 -44 -1 -97z"/>
<path d="M15845 4514 c-19 -19 -19 -38 -1 -53 26 -22 63 10 50 43 -9 22 -32
27 -49 10z"/>
<path d="M5495 4435 c-159 -40 -325 -85 -367 -100 -60 -20 -81 -24 -97 -16
-54 29 -101 0 -101 -63 0 -45 44 -96 83 -96 38 0 70 32 70 69 l0 31 157 50
c86 27 239 72 339 99 120 32 190 56 203 69 11 11 16 22 12 25 -5 3 -139 -28
-299 -68z"/>
<path d="M14432 4358 c-55 -35 -91 -130 -59 -155 6 -6 66 -18 132 -27 162 -23
279 -53 544 -142 221 -74 266 -85 291 -69 17 11 40 69 40 104 0 37 -53 85 -84
77 -11 -3 -70 10 -131 29 -138 42 -560 166 -685 200 -8 3 -30 -5 -48 -17z"/>
<path d="M15696 4224 c-22 -21 -17 -53 11 -71 20 -14 24 -13 48 12 25 24 26
28 12 48 -18 28 -50 33 -71 11z"/>
<path d="M4473 4096 c-60 -29 -93 -57 -93 -80 0 -14 35 -36 57 -36 29 0 158
82 167 106 8 22 -11 44 -38 44 -12 0 -54 -15 -93 -34z"/>
<path d="M4000 3818 c-77 -47 -77 -68 1 -27 34 19 65 40 67 47 6 19 -10 15
-68 -20z"/>
<path d="M4115 3734 c-219 -97 -328 -130 -605 -184 -85 -16 -227 -53 -315 -81
-258 -82 -282 -96 -250 -145 19 -29 39 -30 100 -3 74 33 169 56 482 120 283
57 397 90 606 174 67 27 70 27 103 11 44 -21 50 -20 74 4 30 30 26 76 -9 111
-40 40 -85 38 -186 -7z"/>
<path d="M4092 3458 c-24 -31 -23 -57 2 -83 44 -44 107 -28 122 31 10 38 -20
64 -71 64 -24 0 -47 -6 -53 -12z"/>
<path d="M3514 3383 c-39 -8 -53 -35 -60 -120 l-7 -81 -26 10 c-31 11 -113 3
-150 -17 -39 -20 -100 -85 -124 -130 -26 -51 -35 -176 -17 -240 8 -30 26 -57
51 -79 64 -58 143 -60 211 -5 l38 30 29 -22 c23 -17 37 -20 62 -15 57 11 79
32 79 74 0 21 -5 43 -11 49 -11 11 -6 106 21 418 8 94 7 101 -12 118 -20 16
-39 19 -84 10z m-97 -308 c20 -14 21 -21 16 -93 -3 -42 -11 -91 -18 -109 -27
-65 -104 -82 -125 -27 -6 14 -10 51 -10 82 0 64 29 125 71 148 31 17 40 17 66
-1z"/>
<path d="M1990 3297 c-64 -32 -59 -112 9 -146 45 -23 232 -80 397 -122 138
-34 158 -33 190 16 14 21 14 30 4 55 -18 44 -36 54 -94 52 -63 -3 -125 16
-301 91 -154 65 -173 70 -205 54z"/>
<path d="M3855 3281 c-153 -37 -263 -223 -225 -381 49 -203 326 -198 447 7 21
36 27 63 31 124 6 98 -13 153 -68 203 -54 49 -114 64 -185 47z m74 -140 c44
-44 33 -181 -19 -233 -28 -28 -71 -37 -97 -20 -34 22 -42 111 -17 185 26 77
91 110 133 68z"/>
<path d="M14520 3220 c-270 -35 -562 -170 -767 -355 -172 -156 -310 -409 -301
-552 l3 -48 40 3 c138 11 582 250 796 429 57 47 113 93 124 102 l20 15 -20
-20 c-11 -12 -75 -70 -143 -130 -67 -60 -159 -142 -205 -183 -147 -132 -288
-214 -474 -277 -46 -15 -83 -32 -83 -39 0 -23 88 -95 155 -127 65 -30 77 -33
170 -32 162 2 314 53 480 163 183 121 323 263 514 522 295 398 353 481 342
492 -29 29 -504 56 -651 37z m90 -244 c0 -2 -51 -32 -112 -66 -62 -35 -132
-76 -155 -92 -46 -31 -63 -35 -63 -15 0 16 92 70 220 131 91 43 110 50 110 42z"/>
<path d="M4536 2919 c-14 -11 -26 -25 -26 -30 0 -17 26 -9 48 14 38 40 23 51
-22 16z"/>
<path d="M2390 2870 c-63 -15 -137 -34 -165 -42 l-50 -14 0 -49 c0 -44 -3 -51
-28 -63 -43 -21 -84 -7 -113 39 -20 33 -28 38 -43 30 -64 -35 -63 -128 1 -150
35 -12 93 -1 308 59 74 21 161 43 192 50 68 15 101 46 101 92 0 34 -41 79 -71
77 -9 -1 -69 -14 -132 -29z"/>
<path d="M4430 2846 c-15 -19 -9 -56 11 -69 9 -5 28 -7 42 -3 52 13 42 86 -12
86 -16 0 -34 -7 -41 -14z"/>
<path d="M13284 2836 c-17 -8 -41 -27 -53 -42 -19 -24 -22 -38 -18 -78 6 -70
47 -106 118 -106 46 0 55 4 85 36 28 29 34 43 34 78 0 51 -28 92 -76 112 -41
17 -50 17 -90 0z"/>
<path d="M4200 2709 c-138 -56 -416 -106 -747 -134 -200 -17 -297 -11 -402 25
-57 20 -83 16 -95 -16 -7 -19 15 -59 42 -73 26 -14 177 -41 228 -41 64 0 56
-22 -21 -59 -64 -30 -87 -53 -68 -72 6 -6 34 2 76 21 125 56 263 89 612 145
211 33 439 106 467 149 30 45 -29 80 -92 55z"/>
<path d="M12145 2703 c-191 -10 -419 -31 -780 -73 -337 -39 -1084 -155 -1480
-231 -115 -22 -281 -53 -367 -70 -149 -28 -473 -96 -658 -138 -47 -11 -215
-49 -375 -85 -480 -108 -520 -118 -526 -124 -4 -4 -14 -43 -24 -87 -21 -97
-60 -201 -120 -317 -25 -48 -45 -90 -45 -93 0 -3 7 -5 15 -5 9 0 341 81 738
179 397 99 841 207 987 241 146 33 283 65 305 70 51 13 267 57 370 76 44 8 98
19 120 24 256 60 1100 194 1500 239 421 47 908 54 1110 16 111 -20 224 -51
283 -76 39 -17 48 -18 59 -6 12 12 6 25 -37 90 -133 200 -379 333 -676 367
-82 9 -256 11 -399 3z"/>
<path d="M2493 2583 c-122 -83 -251 -183 -277 -214 -31 -37 -33 -68 -5 -103
39 -50 68 -39 234 89 202 155 215 167 215 199 0 34 -41 76 -74 76 -14 0 -55
-21 -93 -47z"/>
<path d="M3745 2365 c-51 -50 -13 -125 62 -125 47 0 118 32 132 58 17 32 13
70 -8 82 -11 5 -52 10 -91 10 -62 0 -74 -3 -95 -25z"/>
<path d="M4098 2363 c-80 -91 -96 -284 -36 -427 51 -120 176 -271 289 -347
285 -192 768 -334 1290 -380 74 -6 265 -12 424 -13 252 -1 290 1 288 14 -1 8
-9 51 -19 95 -14 69 -15 90 -5 160 7 44 24 106 37 139 13 33 22 61 20 64 -3 2
-103 -6 -223 -18 -641 -66 -1238 7 -1623 200 -214 108 -339 252 -371 430 -6
36 -15 72 -19 80 -11 22 -34 23 -52 3z"/>
<path d="M2972 2338 c-7 -7 -12 -21 -12 -33 0 -29 19 -45 52 -45 17 0 31 7 38
21 24 43 -43 92 -78 57z"/>
<path d="M12260 2179 c-85 -4 -200 -13 -255 -19 -550 -59 -884 -118 -1319
-235 -178 -47 -584 -180 -600 -196 -18 -17 33 -9 172 25 508 126 1122 228
1752 291 265 26 708 54 862 55 193 0 209 20 43 54 -166 33 -351 41 -655 25z"/>
</g>
</svg>
